<svg width="22" height="19" viewBox="0 0 22 19" fill="none" xmlns="http://www.w3.org/2000/svg">
<path d="M10.4588 2.96465L11 3.52886L11.5412 2.96465C13.8244 0.584524 16.2392 0.358759 18.0435 1.18629C19.8958 2.03581 21.25 4.0546 21.25 6.45896C21.25 8.90927 20.2496 10.7965 18.8232 12.4081C17.6492 13.7344 16.2274 14.8342 14.8473 15.9017C14.5202 16.1547 14.1954 16.4059 13.8769 16.6579C13.2989 17.115 12.7787 17.5201 12.2759 17.8148C11.7729 18.1098 11.359 18.25 11 18.25C10.641 18.25 10.2271 18.1098 9.72407 17.8148C9.22133 17.5201 8.70113 17.115 8.12318 16.6579C7.80461 16.4059 7.47984 16.1547 7.15274 15.9017C5.77259 14.8342 4.35078 13.7344 3.17686 12.4081C1.75041 10.7965 0.75 8.90927 0.75 6.45896C0.75 4.0546 2.10418 2.03581 3.95648 1.18629C5.76081 0.35876 8.17554 0.584523 10.4588 2.96465Z" stroke="black" stroke-width="1.5"/>
</svg>
