<svg width="69" height="10" viewBox="0 0 69 10" fill="none" xmlns="http://www.w3.org/2000/svg">
<path d="M0.125 9V0.359375H1.95312C3.17188 1.95312 4.90625 4.1875 7.15625 7.09375V0.359375H8.76562V9H6.92188C5.96875 7.79688 4.23438 5.54688 1.71875 2.28125V9H0.125Z" fill="#00489B"/>
<path d="M16.5156 5.4375C16.5156 4.71875 16.3125 4.14062 15.9062 3.6875C15.5 3.23438 14.9688 3 14.3125 3C13.6562 3 13.125 3.23438 12.7188 3.6875C12.3125 4.14062 12.1094 4.71875 12.1094 5.4375C12.1094 6.15625 12.3125 6.75 12.7188 7.20312C13.125 7.65625 13.6562 7.875 14.3125 7.875C14.9688 7.875 15.5 7.65625 15.9062 7.20312C16.3125 6.75 16.5156 6.15625 16.5156 5.4375ZM10.5156 5.4375C10.5156 4.35938 10.8438 3.46875 11.5312 2.76562C12.2031 2.07812 13.125 1.71875 14.3125 1.71875C15.4844 1.71875 16.4062 2.07812 17.0938 2.76562C17.7656 3.46875 18.1094 4.35938 18.1094 5.4375C18.1094 6.53125 17.7656 7.42188 17.0938 8.10938C16.4219 8.8125 15.5 9.15625 14.3281 9.15625H14.3125C13.125 9.15625 12.2031 8.8125 11.5312 8.10938C10.8438 7.42188 10.5156 6.53125 10.5156 5.4375Z" fill="#00489B"/>
<path d="M20.1875 0.203125H21.75V1.875H23.5469V3.04688H21.75V6.35938C21.75 6.92188 21.8281 7.29688 22 7.48438C22.1562 7.67188 22.4219 7.76562 22.7812 7.76562C23.0469 7.76562 23.2812 7.75 23.4844 7.71875L23.7812 7.6875V8.92188L23.4844 8.98438C23.2812 9.03125 23.0469 9.04688 22.7812 9.04688C21.9531 9.04688 21.3125 8.85938 20.8594 8.48438C20.4062 8.10938 20.1875 7.40625 20.1875 6.35938V3.04688H19.0312V1.875H20.1875V0.203125Z" fill="#00489B"/>
<path d="M24.6875 5.4375C24.6875 4.35938 25.0156 3.46875 25.6875 2.76562C26.3438 2.07812 27.2344 1.71875 28.3594 1.71875C29.4375 1.71875 30.3125 2.07812 31 2.76562C31.6719 3.46875 32.0156 4.35938 32.0156 5.4375V5.65625C32 5.73438 32 5.8125 32 5.875H26.2969C26.3594 6.42188 26.5469 6.875 26.875 7.21875C27.25 7.65625 27.7812 7.875 28.4531 7.875C28.8438 7.875 29.1719 7.79688 29.4531 7.625C29.7188 7.46875 29.9375 7.23438 30.125 6.95312H31.8906C31.625 7.625 31.2031 8.15625 30.6094 8.5625C30.0156 8.96875 29.2969 9.15625 28.4531 9.15625C27.2812 9.15625 26.3594 8.8125 25.7031 8.10938C25.0156 7.42188 24.6875 6.53125 24.6875 5.4375ZM26.3125 4.84375H30.375C30.2969 4.39062 30.125 4 29.875 3.67188C29.5156 3.23438 29.0156 3 28.3594 3C27.7031 3 27.1875 3.23438 26.8281 3.67188C26.5625 4 26.3906 4.39062 26.3125 4.84375Z" fill="#00489B"/>
<path d="M36.9844 9V0.359375H38.8125C40.0312 1.95312 41.7656 4.1875 44.0156 7.09375V0.359375H45.625V9H43.7812C42.8281 7.79688 41.0938 5.54688 38.5781 2.28125V9H36.9844Z" fill="#00489B"/>
<path d="M47.375 5.4375C47.375 4.35938 47.7031 3.46875 48.375 2.76562C49.0312 2.07812 49.9219 1.71875 51.0469 1.71875C52.125 1.71875 53 2.07812 53.6875 2.76562C54.3594 3.46875 54.7031 4.35938 54.7031 5.4375V5.65625C54.6875 5.73438 54.6875 5.8125 54.6875 5.875H48.9844C49.0469 6.42188 49.2344 6.875 49.5625 7.21875C49.9375 7.65625 50.4688 7.875 51.1406 7.875C51.5312 7.875 51.8594 7.79688 52.1406 7.625C52.4062 7.46875 52.625 7.23438 52.8125 6.95312H54.5781C54.3125 7.625 53.8906 8.15625 53.2969 8.5625C52.7031 8.96875 51.9844 9.15625 51.1406 9.15625C49.9688 9.15625 49.0469 8.8125 48.3906 8.10938C47.7031 7.42188 47.375 6.53125 47.375 5.4375ZM49 4.84375H53.0625C52.9844 4.39062 52.8125 4 52.5625 3.67188C52.2031 3.23438 51.7031 3 51.0469 3C50.3906 3 49.875 3.23438 49.5156 3.67188C49.25 4 49.0781 4.39062 49 4.84375Z" fill="#00489B"/>
<path d="M59.2031 2.95312C58.7812 2.95312 58.4375 3.04688 58.1562 3.20312C57.8594 3.375 57.7188 3.59375 57.7188 3.85938C57.7188 4.21875 57.9219 4.45312 58.3438 4.54688C58.75 4.67188 59.2344 4.76562 59.7812 4.84375C60.0625 4.90625 60.3594 4.96875 60.6562 5.03125C60.9375 5.09375 61.2031 5.1875 61.4531 5.3125C61.75 5.46875 62 5.67188 62.1875 5.92188C62.375 6.1875 62.4844 6.53125 62.4844 6.95312C62.4844 7.25 62.4219 7.5 62.3281 7.71875C62.2188 7.95312 62.0781 8.15625 61.9062 8.3125C61.5781 8.625 61.1719 8.84375 60.6719 8.96875C60.1562 9.09375 59.6719 9.15625 59.2031 9.15625C58.7344 9.15625 58.25 9.09375 57.7656 8.95312C57.2656 8.82812 56.8594 8.60938 56.5469 8.29688C56.3594 8.14062 56.2344 7.9375 56.1406 7.71875C56.0312 7.5 55.9844 7.23438 55.9844 6.95312H57.5781C57.5781 7.29688 57.7656 7.54688 58.1094 7.6875C58.4531 7.84375 58.8125 7.92188 59.2031 7.92188C59.6094 7.92188 60 7.85938 60.3594 7.70312C60.7031 7.5625 60.875 7.34375 60.875 7.03125C60.875 6.84375 60.8125 6.6875 60.6875 6.5625C60.5469 6.4375 60.375 6.34375 60.1562 6.26562C59.75 6.14062 59.2656 6.03125 58.6875 5.95312C58.1094 5.89062 57.5938 5.73438 57.1406 5.5C56.8281 5.35938 56.5938 5.15625 56.4062 4.89062C56.2031 4.64062 56.1094 4.29688 56.1094 3.85938C56.1094 3.375 56.2656 2.96875 56.6094 2.65625C56.9219 2.34375 57.3125 2.125 57.75 1.96875C57.9844 1.89062 58.2344 1.82812 58.4844 1.78125C58.7344 1.75 58.9688 1.71875 59.2031 1.71875C59.4219 1.71875 59.6562 1.75 59.9062 1.78125C60.1562 1.82812 60.3906 1.89062 60.625 1.98438C61.0625 2.15625 61.4531 2.40625 61.7812 2.75C62.1094 3.09375 62.2812 3.54688 62.2812 4.07812H60.6719C60.6719 3.76562 60.5156 3.5 60.2344 3.28125C59.9375 3.0625 59.5938 2.95312 59.2031 2.95312Z" fill="#00489B"/>
<path d="M64.5938 0.203125H66.1562V1.875H67.9531V3.04688H66.1562V6.35938C66.1562 6.92188 66.2344 7.29688 66.4062 7.48438C66.5625 7.67188 66.8281 7.76562 67.1875 7.76562C67.4531 7.76562 67.6875 7.75 67.8906 7.71875L68.1875 7.6875V8.92188L67.8906 8.98438C67.6875 9.03125 67.4531 9.04688 67.1875 9.04688C66.3594 9.04688 65.7188 8.85938 65.2656 8.48438C64.8125 8.10938 64.5938 7.40625 64.5938 6.35938V3.04688H63.4375V1.875H64.5938V0.203125Z" fill="#00489B"/>
</svg>
